# xmcd
#
# Track frame offsets: 
#        150
#        23512
#        45896
#        59809
#        78628
#        92996
#        111037
#        131054
#        148602
#        169332
#        188679
#        204864
#        222935
#
# Disc length: 3347 seconds
#
# Revision: 0
# Processed by: cddbd v1.5.2PL0 Copyright (c) Steve Scherf et al.
# Submitted via: ExactAudioCopy v0.99pb5
#
DISCID=b50d110d
DTITLE=Nazareth  - No Jive - 1991 [30th Ann. Edition]  FLAC
DYEAR=1900
DGENRE=
TTITLE0=Hire And Fire
TTITLE1=Do You Wanna Play House
TTITLE2=Right Between The Eyes
TTITLE3=Every Time It Rains
TTITLE4=Keeping Our Love Alive
TTITLE5=Thinkin' Man's Nightmare
TTITLE6=Cover Your Heart
TTITLE7=Lap Of Luxury
TTITLE8=Medley- The Rowan Tree - Tell Me That You Love Me
TTITLE9=Cry Wolf
TTITLE10=This Flight Tonight- [1991 version]
TTITLE11=Hire And Fire- [edited version]
TTITLE12=Medley-- The Rowan Tree [edited version] - Tell Me That You L
TTITLE12=ove Me [edited version]
EXTD=
EXTT0=
EXTT1=
EXTT2=
EXTT3=
EXTT4=
EXTT5=
EXTT6=
EXTT7=
EXTT8=
EXTT9=
EXTT10=
EXTT11=
EXTT12=
PLAYORDER=
